<?xml version="1.0" encoding="UTF-8"?>
<svg id="Layer_2" xmlns="http://www.w3.org/2000/svg" version="1.1" viewBox="0 0 852 457.9">
  <!-- Generator: Adobe Illustrator 29.3.1, SVG Export Plug-In . SVG Version: 2.1.0 Build 151)  -->
  <defs>
    <style>
      .st0 {
        stroke: #e8daf1;
      }

      .st0, .st1, .st2, .st3, .st4 {
        fill: none;
      }

      .st0, .st1, .st3, .st4 {
        stroke-miterlimit: 10;
      }

      .st1 {
        stroke: #e9e2b6;
      }

      .st5 {
        fill: #b391c7;
      }

      .st6 {
        fill: #1d1b20;
      }

      .st7 {
        fill: #84599e;
      }

      .st8 {
        fill: #afaa89;
      }

      .st9 {
        fill: #e8daf1;
      }

      .st10 {
        fill: #e9e2b6;
      }

      .st2 {
        stroke: #000;
        stroke-linecap: round;
        stroke-linejoin: round;
        stroke-width: .5px;
      }

      .st11 {
        fill: #582e70;
      }

      .st3 {
        stroke: #582e70;
      }

      .st4 {
        stroke: #341149;
      }

      .st12 {
        fill: #341149;
      }
    </style>
  </defs>
  <rect class="st11" width="852" height="457.6"/>
  <g>
    <g>
      <path class="st12" d="M626.4,80.6v300.5l-76.6,76.6h-276.9l-80.7-80.7V79.9L271.9.2h280.4l74,80.3h.1ZM607.6,369V92.9l-35.5-38.5-32.5-35.3h-257.6l-73.2,73.2v272.9l74.1,74.1h254.4l.3-.3,70.1-70.1h0Z"/>
      <polygon class="st6" points="607.6 92.9 607.6 369 547.7 327.1 547.8 327 549 133 607.6 92.9"/>
      <polygon class="st7" points="572.1 54.4 607.6 92.9 549 133 528.6 147 485.8 104.2 570.6 55.9 572.1 54.4"/>
      <polygon class="st7" points="607.6 369 537.6 439 537.3 438.8 486.4 355.9 528.5 313.7 547.7 327.1 607.6 369"/>
      <polygon class="st11" points="539.6 19.1 572.1 54.4 570.6 55.9 485.8 104.2 539.6 19.1"/>
      <polygon class="st7" points="549 133 547.8 327 547.7 327.1 528.5 313.7 528.6 313.6 528.6 147 549 133"/>
      <polygon class="st11" points="365.6 102.8 332 102.4 282 19.1 539.6 19.1 485.8 104.2 365.6 102.8"/>
      <path class="st7" d="M537.6,439l-.3.3h-167.4l-53.5-56h0l16.2-27.2h153.6l.2-.2,51,82.9.3.3h-.1ZM499.3,431.2c5.8,0,5.9-3.5,5.9-3.5,0,0,0-3.5-5.9-3.5s-6,3.5-6,3.5c0,0,.3,3.6,6,3.6h0ZM486.1,412.3l-14.4-37.9h-49.7l-13.8,37.9h77.9ZM478.3,431.2c5.8,0,5.9-3.5,5.9-3.5,0,0,0-3.5-5.9-3.5s-6,3.5-6,3.5c0,0,.3,3.6,6,3.6h0ZM457.4,431.2c5.8,0,5.9-3.5,5.9-3.5,0,0,0-3.5-5.9-3.5s-6,3.5-6,3.5c0,0,.2,3.6,6,3.6h0ZM435.4,431.2c5.8,0,5.9-3.5,5.9-3.5,0,0,0-3.5-5.9-3.5s-6,3.5-6,3.5c0,0,.3,3.6,6,3.6h0ZM412.6,431.2c5.8,0,5.9-3.5,5.9-3.5,0,0,0-3.5-5.9-3.5s-6,3.5-6,3.5c0,0,.2,3.6,6,3.6h0ZM391.6,431.2c5.8,0,5.9-3.5,5.9-3.5,0,0,0-3.5-5.9-3.5s-6,3.5-6,3.5c0,0,.3,3.6,6,3.6h0ZM374.2,404.6l17.3-15s-26.4-19.9-58.9,0l15.3,15h26.3,0ZM369.9,431.2c5.8,0,5.9-3.5,5.9-3.5,0,0,0-3.5-5.9-3.5s-6,3.5-6,3.5c0,0,.3,3.6,6.1,3.6h-.1Z"/>
      <path class="st6" d="M332.6,356l-44.7-44.7v-69.2c72.9-40.2,77.5-132.6,77.8-139.3l120.2,1.4,42.8,42.8v166.6h0l-42.2,42.3-.2.2h-153.7,0Z"/>
      <path class="st5" d="M505.2,427.7s-.1,3.5-5.9,3.5-6-3.6-6-3.6c0,0,0-3.5,6-3.5s5.9,3.5,5.9,3.5h0Z"/>
      <path class="st5" d="M484.2,427.7s-.1,3.5-5.9,3.5-6-3.6-6-3.6c0,0,0-3.5,6-3.5s5.9,3.5,5.9,3.5h0Z"/>
      <path class="st5" d="M463.3,427.7s-.1,3.5-5.9,3.5-6-3.6-6-3.6c0,0,0-3.5,6-3.5s5.9,3.5,5.9,3.5h0Z"/>
      <path class="st5" d="M441.4,427.7s-.1,3.5-5.9,3.5-6-3.6-6-3.6c0,0,0-3.5,6-3.5s5.9,3.5,5.9,3.5h0Z"/>
      <path class="st5" d="M418.5,427.7s-.1,3.5-5.9,3.5-6-3.6-6-3.6c0,0,0-3.5,6-3.5s5.9,3.5,5.9,3.5h0Z"/>
      <path class="st5" d="M397.5,427.7s-.1,3.5-5.9,3.5-6-3.6-6-3.6c0,0,0-3.5,6-3.5s5.9,3.5,5.9,3.5h0Z"/>
      <path class="st11" d="M361,401.6c-5.8,0-9.8,3-9.8,3h-3.3l-15.3-15c32.6-19.9,58.9,0,58.9,0l-17.3,15h-3.4c-3.6-2.3-6.9-3-9.8-3h0Z"/>
      <path class="st5" d="M375.8,427.7s-.1,3.5-5.9,3.5-6.1-3.6-6.1-3.6c0,0,0-3.5,6-3.5s5.9,3.5,5.9,3.5h.1Z"/>
      <path class="st5" d="M361,401.6c2.9,0,6.2.8,9.8,3h-19.5s3.9-3.1,9.8-3h-.1Z"/>
      <path class="st11" d="M316.3,383.3l53.5,56h-75.5l-6.5-8.2,28.5-47.8h0ZM347.6,431.2c5.8,0,5.9-3.5,5.9-3.5,0,0,0-3.5-5.9-3.5s-6,3.5-6,3.5c0,0,.2,3.6,6,3.6h0ZM326.7,431.2c5.8,0,5.9-3.5,5.9-3.5,0,0,0-3.5-5.9-3.5s-6,3.5-6,3.5c0,0,.2,3.6,6,3.6h0Z"/>
      <path class="st7" d="M353.6,427.7s-.1,3.5-5.9,3.5-6-3.6-6-3.6c0,0,0-3.5,6-3.5s5.9,3.5,5.9,3.5h0Z"/>
      <polygon class="st7" points="332.6 356 316.3 383.3 287.8 311.3 332.6 356"/>
      <polygon class="st11" points="282 19.1 332 102.4 300.7 133.7 287.8 146.6 268.1 133 221.7 101.2 220.5 100.4 208.8 92.3 282 19.1"/>
      <path class="st7" d="M332.6,427.7s-.1,3.5-5.9,3.5-6-3.6-6-3.6c0,0,0-3.5,6-3.5s5.9,3.5,5.9,3.5h0Z"/>
      <polygon class="st11" points="316.3 383.3 287.8 431.1 264.8 327 287.8 311.3 316.3 383.3"/>
      <polygon class="st7" points="287.8 431.1 294.3 439.3 282.9 439.3 287.8 431.1"/>
      <polygon class="st11" points="287.8 242.1 287.8 311.3 264.8 327 266.1 251.7 268.1 133 287.8 146.6 287.8 187.4 287.8 242.1"/>
      <polygon class="st7" points="264.8 327 287.8 431.1 282.9 439.3 208.8 365.2 264.8 327"/>
      <path class="st6" d="M266.1,251.7l-1.3,75.3-56,38.2v-104.6c22,0,41-3.3,57.3-8.9h0Z"/>
    </g>
    <g>
      <polygon class="st3" points="282 19.1 208.8 92.3 208.8 133 208.8 260.5 208.8 365.2 282.9 439.3 294.3 439.3 369.9 439.3 537.3 439.3 537.6 439 607.6 369 607.6 92.9 572.1 54.4 539.6 19.1 282 19.1"/>
      <line class="st4" x1="332" y1="102.4" x2="282" y2="19.1"/>
      <line class="st4" x1="268.1" y1="133" x2="287.8" y2="146.6"/>
      <polyline class="st4" points="287.8 311.3 264.8 327 208.8 365.2"/>
      <line class="st4" x1="282.9" y1="439.3" x2="287.8" y2="431.1"/>
      <line class="st4" x1="287.8" y1="431.1" x2="316.3" y2="383.3"/>
      <line class="st4" x1="316.3" y1="383.3" x2="332.6" y2="356"/>
      <line class="st4" x1="332.6" y1="356" x2="332.9" y2="355.5"/>
      <polyline class="st3" points="486.1 355.5 486.4 355.9 537.3 438.8"/>
      <polyline class="st3" points="528.1 313.3 528.5 313.7 547.7 327.1 607.6 369"/>
      <line class="st3" x1="485.8" y1="104.2" x2="570.6" y2="55.9"/>
      <line class="st4" x1="539.6" y1="19.1" x2="485.8" y2="104.2"/>
      <polyline class="st3" points="607.6 92.9 549 133 528.6 147"/>
      <path class="st1" d="M287.8,242.1c72.9-40.2,77.5-132.6,77.8-139.3v-.4"/>
      <path class="st1" d="M208.8,260.5c22,0,41-3.3,57.3-8.9"/>
      <path class="st4" d="M320.6,427.6s.2,3.6,6,3.6,5.9-3.5,5.9-3.5c0,0,0-3.5-5.9-3.5s-6,3.5-6,3.5h0Z"/>
      <path class="st4" d="M341.6,427.6s.2,3.6,6,3.6,5.9-3.5,5.9-3.5c0,0,0-3.5-5.9-3.5s-6,3.5-6,3.5h0Z"/>
      <path class="st3" d="M363.9,427.6s.3,3.6,6.1,3.6,5.9-3.5,5.9-3.5c0,0,0-3.5-5.9-3.5s-6,3.5-6,3.5h-.1Z"/>
      <path class="st3" d="M385.5,427.6s.3,3.6,6,3.6,5.9-3.5,5.9-3.5c0,0,0-3.5-5.9-3.5s-6,3.5-6,3.5h0Z"/>
      <path class="st3" d="M406.6,427.6s.2,3.6,6,3.6,5.9-3.5,5.9-3.5c0,0,0-3.5-5.9-3.5s-6,3.5-6,3.5h0Z"/>
      <path class="st3" d="M429.4,427.6s.3,3.6,6,3.6,5.9-3.5,5.9-3.5c0,0,0-3.5-5.9-3.5s-6,3.5-6,3.5h0Z"/>
      <path class="st3" d="M451.3,427.6s.2,3.6,6,3.6,5.9-3.5,5.9-3.5c0,0,0-3.5-5.9-3.5s-6,3.5-6,3.5h0Z"/>
      <path class="st3" d="M472.3,427.6s.3,3.6,6,3.6,5.9-3.5,5.9-3.5c0,0,0-3.5-5.9-3.5s-6,3.5-6,3.5h0Z"/>
      <path class="st3" d="M493.2,427.6s.3,3.6,6,3.6,5.9-3.5,5.9-3.5c0,0,0-3.5-5.9-3.5s-6,3.5-6,3.5h0Z"/>
      <line class="st0" x1="444.2" y1="394.8" x2="445.8" y2="395.5"/>
      <polygon class="st2" points="271.9 .2 192.2 79.9 192.2 377 272.9 457.6 549.9 457.6 626.4 381.1 626.4 80.6 552.4 .2 271.9 .2"/>
    </g>
  </g>
  <g id="_x3C_hastighed_x3E_">
    <path class="st1" d="M370.7,404.6h3.4l17.3-15s-26.4-19.9-58.9,0l15.3,15h22.9Z"/>
    <path class="st0" d="M370.7,404.6c-3.6-2.3-6.9-3-9.8-3-5.8,0-9.8,3-9.8,3"/>
    <path class="st0" d="M357.2,394.2c1.3-.6,1.2-3.2,1.2-3.2"/>
    <polyline class="st0" points="361 401.6 361 401.6 358.4 391.1"/>
    <path class="st0" d="M358.4,391h0c.2.3,1.3,2.4,2.7,2.5"/>
    <line class="st0" x1="338.2" y1="389.7" x2="340.6" y2="392.4"/>
    <line class="st0" x1="362" y1="386" x2="362.1" y2="383.3"/>
    <line class="st0" x1="385.3" y1="389.2" x2="382.8" y2="391.9"/>
    <line class="st0" x1="349.5" y1="385.1" x2="350.4" y2="388.1"/>
    <line class="st0" x1="376.3" y1="385.2" x2="375.2" y2="388"/>
  </g>
  <g id="_x3C_radar_x3E_">
    <path class="st11" d="M471.7,374.4l14.4,37.9h-38.7v-2.7c26.6,0,27.2-16.2,27.2-16.2,0-.2-.1-16.2-27.3-16.3v-2.7h24.4Z"/>
    <path class="st11" d="M445.5,377.1c-13.1.3-19.6,4.5-22.7,8.4-3,3.8-3,7.5-3,7.5,0,0,1.2,16.6,27.8,16.6v2.7h-39.3l13.8-37.9h25.3v2.7h-1.9Z"/>
    <path class="st5" d="M474.6,393.4s-.6,16.2-27.2,16.2-27.8-16.6-27.8-16.6c0,0,0-3.7,3-7.5l7,3c-1.6,2.4-1.6,4.5-1.6,4.5,0,0,.8,11.5,19.3,11.5s18.9-11.3,18.9-11.3c0-.2,0-11.2-18.9-11.3h-.2l-1.7-5h1.9c27.2,0,27.3,16.1,27.3,16.3h0v.2h0Z"/>
    <path class="st5" d="M466.2,393.4s-.4,11.3-18.9,11.3-19.3-11.5-19.3-11.5c0,0,0-2.1,1.6-4.5l5,2.2c-.7,1.4-.7,2.5-.7,2.5,0,0,.6,8,13.3,8s13-7.8,13-7.8c0-.1,0-7.4-12-7.8l-1.2-3.5h.2c18.8,0,18.9,11.1,18.9,11.3h0v-.2h.1Z"/>
    <path class="st5" d="M460.1,393.5s-.3,7.7-12.9,7.7-13.2-7.9-13.2-7.9c0,0,0-1.1.7-2.5l9.3,4.1h0c.4.3.9.6,1.6.7h1.4c3.8,0,3.9-2.3,3.9-2.3,0,0,0-.6-.5-1.2l-2.2-6.4c11.9.4,11.9,7.6,11.9,7.7h0Z"/>
    <path class="st9" d="M448.3,385.6l2.2,6.5c-.5-.6-1.5-1.1-3.4-1.1-3.9,0-3.9,2.3-3.9,2.3,0,0,0,.8.9,1.5l-9.4-4.1c1.2-2.2,4.3-5.2,12.6-5.2h1.1-.1Z"/>
    <path class="st9" d="M447.1,382.1l1.2,3.5h-1.1c-8.3,0-11.4,2.9-12.6,5.2l-5-2.2c2.1-3,6.8-6.5,17.4-6.5h.1Z"/>
    <path class="st9" d="M445.5,377.1l1.7,5c-10.6,0-15.3,3.5-17.4,6.5l-7-3c3.1-4,9.6-8.1,22.7-8.4h0Z"/>
    <polyline class="st0" points="422.8 385.6 429.8 388.6 434.7 390.8 444.2 394.8"/>
    <polyline class="st0" points="450.6 392.1 448.3 385.6 447.1 382.1 445.5 377.1 445.5 377.1"/>
    <path class="st4" d="M434.7,390.8c-.7,1.4-.7,2.5-.7,2.5,0,0,.6,8,13.3,8s13-7.8,13-7.8c0-.1,0-7.4-12-7.8h-1.1c-8.3,0-11.4,2.9-12.6,5.2h.1Z"/>
    <path class="st4" d="M429.8,388.6c-1.6,2.4-1.6,4.5-1.6,4.5,0,0,.8,11.5,19.3,11.5s18.8-11.3,18.8-11.3c0-.2,0-11.2-18.9-11.3h-.2c-10.6,0-15.3,3.5-17.4,6.5h0Z"/>
    <path class="st4" d="M422.8,385.6c-3,3.8-3,7.5-3,7.5,0,0,1.2,16.6,27.8,16.6s27.2-16.2,27.2-16.2c0-.2-.1-16.2-27.3-16.3h-1.9c-13.1.3-19.6,4.5-22.7,8.4h-.1Z"/>
    <path class="st11" d="M451.1,393.4s0,2.3-3.9,2.3-1,0-1.4-.1l-1.6-.7h0c-.8-.7-.9-1.5-.9-1.5,0,0,0-2.3,3.9-2.3s2.8.5,3.3,1.1.5,1.2.5,1.2h.1Z"/>
    <path class="st4" d="M450.6,392.1c-.5-.6-1.5-1.1-3.4-1.1-3.9,0-3.9,2.3-3.9,2.3,0,0,0,.8.9,1.5h0c.4.3.9.6,1.6.7.4,0,.9.1,1.4.1,3.8,0,3.9-2.3,3.9-2.3,0,0,0-.6-.5-1.2h0Z"/>
    <polygon class="st1" points="447.4 374.4 422.1 374.4 408.2 412.3 447.5 412.3 486.1 412.3 471.7 374.4 447.4 374.4"/>
  </g>
  <g id="_x3C_stjerner_x3E_">
    <path class="st10" d="M386.6,171.4c-.7,0-1.3,1-.9,1.6.2.4.9.6,1.4.4.6-.2.9-.9.6-1.5-.2-.4-.6-.6-1-.6h-.1Z"/>
    <path class="st10" d="M384.3,176c-.7,0-1.3,1-.9,1.6.2.4.9.6,1.4.4.6-.2.9-.9.6-1.5-.2-.4-.6-.6-1-.6h-.1Z"/>
    <path class="st10" d="M409.3,163.9c-.7,0-1.3,1-.9,1.6.2.4.9.6,1.4.4.6-.2.9-.9.6-1.5-.2-.4-.6-.6-1-.6h-.1Z"/>
    <path class="st10" d="M428.5,204.7c-.4,0-.6.7-.5,1.1.1.3.4.4.7.3.3-.2.4-.6.3-1,0-.3-.3-.4-.5-.4h0Z"/>
    <path class="st10" d="M343.1,262.6c-.7,0-1.3,1-.9,1.6.2.4.9.6,1.4.4.6-.2.9-.9.6-1.5-.2-.4-.6-.6-1-.6h-.1Z"/>
    <path class="st10" d="M344.2,203.6c-.7,0-1.3,1-.9,1.6.2.4.9.6,1.4.4.6-.2.9-.9.6-1.5-.2-.4-.6-.6-1-.6h-.1Z"/>
    <path class="st10" d="M423.1,299.3c-.7,0-1.3,1-.9,1.6.2.4.9.6,1.4.4.6-.2.9-.9.6-1.5-.2-.4-.6-.6-1-.6h-.1Z"/>
    <path class="st10" d="M358.5,257.8c-.5,0-.9.4-.6.7.1.2.6.3.9.2.4-.1.6-.4.4-.6-.1-.2-.4-.3-.7-.2h0Z"/>
    <path class="st10" d="M494.3,138.7c-.7,0-1.3,1-1,1.6.2.4.9.6,1.4.4.6-.2.9-.9.6-1.5-.2-.4-.6-.6-1-.6h0Z"/>
    <path class="st10" d="M450.5,107.3c-.7,0-1.3,1-1,1.7.2.4.9.7,1.4.4.6-.2.9-.9.6-1.5-.2-.4-.6-.7-1-.6h0Z"/>
    <path class="st10" d="M252.5,263.7c-.7,0-1.3,1-1,1.6.2.4.9.6,1.4.4.6-.2.8-.9.6-1.5-.2-.4-.6-.6-1-.6h0Z"/>
    <path class="st10" d="M443.2,205.1c-.7,0-1.3,1-.9,1.6.2.4.9.6,1.4.4.6-.2.9-.9.6-1.5-.2-.4-.6-.6-1-.6h-.1Z"/>
    <path class="st10" d="M445.8,213.1c-.4,0-.6.7-.5,1.1.1.3.4.4.7.3.3-.2.4-.6.3-1,0-.3-.3-.4-.5-.4h0Z"/>
    <path class="st10" d="M573.3,125.6c-.4,0-.6.7-.5,1.1.1.3.4.4.7.3.3-.2.4-.6.3-1,0-.3-.3-.4-.5-.4h0Z"/>
    <path class="st10" d="M588.6,140.2c-.7,0-1.3,1-1,1.6.2.4.9.6,1.4.4.6-.2.9-.9.6-1.5-.2-.4-.6-.6-1-.6h0Z"/>
    <path class="st10" d="M596.1,177.6c-.4,0-.6.7-.5,1.1.1.3.4.4.7.3.3-.2.4-.6.3-1,0-.3-.3-.4-.5-.4h0Z"/>
    <path class="st10" d="M568.1,228.9c-.7,0-1.3,1-1,1.6.2.4.9.6,1.4.4.6-.2.9-.9.6-1.5-.2-.4-.6-.6-1-.6h0Z"/>
    <path class="st10" d="M404.5,219.6c-.7,0-1.3,1-.9,1.6.2.4.9.6,1.4.4.6-.2.9-.9.6-1.5-.2-.4-.6-.6-1-.6h-.1Z"/>
    <path class="st10" d="M554.6,182.3c-.7,0-1.3,1-1,1.6.2.4.9.6,1.4.4.6-.2.9-.9.6-1.5-.2-.4-.6-.6-1-.6h0Z"/>
    <path class="st10" d="M589.7,326.3c-.4,0-.6.7-.5,1.1.1.3.4.5.7.3.3-.2.4-.6.3-1,0-.3-.3-.4-.5-.4h0Z"/>
    <path class="st10" d="M511.7,282.6c-.7,0-1.3,1-1,1.6.2.4.9.6,1.4.4.6-.2.9-.9.6-1.5-.2-.4-.6-.6-1-.6h0Z"/>
    <path class="st10" d="M229.1,327.8c-.4,0-.6.7-.5,1.1,0,.3.4.5.7.3s.4-.6.3-1c0-.3-.3-.4-.5-.4h0Z"/>
    <path class="st10" d="M360.9,336.4c-.4,0-.6.7-.5,1.1.1.3.4.5.7.3s.4-.6.3-1c0-.3-.3-.4-.5-.4h0Z"/>
  </g>
  <g id="_x3C_moon_x3E_">
    <path class="st10" d="M332,102.4l33.6.4c-.2,6.7-4.9,99.1-77.8,139.3v-54.7c6.9-7.2,14.2,5.8,14.2,5.8,0,0,23.5-11.2,14.2-19.7-9.2-8.4-18.7-11.5-14.2-17,4.4-5.5,11.2-12.8,4.9-17.9l-6.3-5,31.3-31.3h.1Z"/>
    <path class="st8" d="M316.3,173.6c9.2,8.4-14.2,19.7-14.2,19.7,0,0-7.3-13-14.2-5.8v-40.8l12.9-12.9,6.3,5c6.3,5-.5,12.4-4.9,17.9s5,8.6,14.2,17h-.1Z"/>
    <path class="st10" d="M268.1,133l-2,118.7c-16.3,5.6-35.2,8.9-57.3,8.9v-127.5h.5s4.1-10.7,9.3-5.9c5.2,4.8,2.1,15.7,11,11.6,8.9-4,1.1-10.7,2.2-15.4,1-4.7.6-10.4-5.1-10.7s-10.2-9.1-7.6-10.3l2.6-1.2,46.4,31.8h0Z"/>
    <path class="st8" d="M226.7,112.7c5.7.2,6.2,5.9,5.1,10.7-1,4.7,6.7,11.4-2.2,15.4-8.9,4-5.8-6.9-11-11.6-5.2-4.8-9.3,5.9-9.3,5.9h-.5v-40.7l11.7,8,1.2.8-2.6,1.2c-2.6,1.2,1.9,10,7.6,10.3Z"/>
    <path class="st8" d="M220.3,248.1s12-13.2,18.6-11.9,14-2.6,14.1-5.1,4.7-20.7-4.2-20.7-7.5,6.2-15.9,4.1-4.2-14.6-3.8-17.4-1.8-6.6-3.8-4-7.7,7.9-4.9,11.5,3.4,21.9-.8,14.9-5.4-4.7-7.8-2.1l-2.5,2.6v28s2.1-3.6,4.6-3.2,4.1,8.6,6.5,3.2h-.1Z"/>
    <path class="st8" d="M267.1,189.5s-.6-13.5-6.1-12-12-6.7-8.5-10.8,5.1,4.3,8.3-1c3.2-5.3,1.2-15.1,4-13.5s2.9-5.8,2.9-5.8"/>
  </g>
</svg>