<?xml version="1.0" encoding="UTF-8"?>
<svg id="Layer_1" data-name="Layer 1" xmlns="http://www.w3.org/2000/svg" width="594.77" height="520.67" viewBox="0 0 594.77 520.67">
  <g>
    <path d="M493.51,359.51l-45.34-78.54,61.3,104.42h-30.89c13.27,0,21.58-14.37,14.93-25.88Z" style="fill: #1c1b20;"/>
    <path d="M478.58,385.39h-153.12l92.01-156.72,30.59,52.1.12.2,45.34,78.54c6.64,11.5-1.66,25.88-14.93,25.88h-.01Z" style="fill: #1c1b20;"/>
    <path d="M448.05,280.78L312.33,45.7c-6.64-11.5-23.24-11.5-29.88,0l-110.65,191.67-.2.33-86.69,147.69h424.56l-61.3-104.42-.12-.2h0ZM315.56,32.02l258.09,446.99c8.08,14-2.02,31.48-18.18,31.48H39.31c-16.15,0-26.26-17.48-18.18-31.48L279.22,32.02c8.08-14,28.26-14,36.34,0Z" style="fill: #cab095;"/>
    <path d="M315.56,10.5l276.37,478.69c8.08,14-2.01,31.48-18.18,31.48H21.03c-16.17,0-26.26-17.48-18.18-31.48L279.22,10.5c8.08-14,28.26-14,36.34,0ZM573.65,479.01L315.56,32.02c-8.08-14-28.26-14-36.34,0L21.13,479.01c-8.08,14,2.02,31.48,18.18,31.48h516.16c16.15,0,26.26-17.48,18.18-31.48h0Z" style="fill: #341149;"/>
    <path d="M171.8,237.37l110.65-191.67c6.64-11.5,23.24-11.5,29.88,0l135.72,235.08-30.59-52.1-92.01,156.72h-56.54l-92.01-156.72-5.1,8.7h0Z" style="fill: #1c1b20;"/>
    <path d="M268.91,385.39H116.21c-13.27,0-21.58-14.37-14.93-25.88l70.33-121.81.2-.33,5.1-8.7,92.01,156.72h-.01Z" style="fill: #1c1b20;"/>
    <path d="M101.27,359.51c-6.64,11.5,1.66,25.88,14.93,25.88h-31.3l86.69-147.69-70.33,121.81h.01Z" style="fill: #1c1b20;"/>
  </g>
  <path d="M254.82,253.55s100.21-15.69,152.74,23.14c0,0-36.54-12.94-42.63-9.9,0,0,33.5,8.37,52.53,36.54,0,0-54.81-32.36-73.85-26.46,0,0,31.98,8.19,44.92,26.46,0,0-98.72-38.32-133.71-42.22" style="fill: #e26d58;"/>
  <polygon points="280.97 234.59 254.82 258.12 269.13 290.25 238.67 272.66 212.53 296.2 219.84 261.79 189.38 244.2 224.37 240.53 231.67 206.13 245.99 238.25 280.97 234.59" style="fill: #ecae67;"/>
  <path d="M323.74,296.81c-1.09.11-1.93,1.56-1.43,2.49.35.65,1.31.98,2.1.65.85-.36,1.28-1.42.92-2.23-.27-.6-.97-.98-1.57-.92h0l-.02.02h0Z" style="fill: #e7e0b4;"/>
  <path d="M366.2,307.29c-1.09.11-1.93,1.56-1.43,2.49.35.65,1.31.98,2.1.65.85-.36,1.28-1.42.92-2.23-.27-.6-.97-.98-1.57-.92h0l-.02.02h0Z" style="fill: #e7e0b4;"/>
  <path d="M297.39,340.12c-1.09.11-1.93,1.56-1.43,2.49.35.65,1.31.98,2.1.65.85-.36,1.28-1.42.92-2.23-.27-.6-.97-.98-1.57-.92h0l-.02.02h0Z" style="fill: #e7e0b4;"/>
  <path d="M432.9,350.44c-.54.08-.95,1.06-.71,1.69.17.45.65.68,1.04.45.42-.24.63-.97.45-1.51-.14-.42-.47-.66-.77-.62h0l-.02-.02h0Z" style="fill: #e7e0b4;"/>
  <path d="M455.17,351.03c-1.09.11-1.93,1.56-1.43,2.49.35.65,1.31.98,2.1.65.85-.36,1.28-1.42.92-2.23-.27-.6-.97-.98-1.57-.92h0l-.02.02h0Z" style="fill: #e7e0b4;"/>
  <path d="M489.39,367.75c-.54.08-.95,1.06-.71,1.69.17.45.65.68,1.04.45.42-.24.63-.97.45-1.51-.14-.42-.47-.66-.77-.62h0l-.02-.02h0Z" style="fill: #e7e0b4;"/>
  <path d="M385.02,368.36c-1.09.11-1.93,1.56-1.43,2.49.35.65,1.31.98,2.1.65.85-.36,1.28-1.42.92-2.23-.27-.6-.97-.98-1.57-.92h0l-.02.02h0Z" style="fill: #e7e0b4;"/>
  <path d="M207.78,264.07c-1.09.11-1.93,1.56-1.43,2.49.35.65,1.31.98,2.1.65.85-.36,1.28-1.42.92-2.23-.27-.6-.97-.98-1.57-.92h0l-.02.02h0Z" style="fill: #e7e0b4;"/>
  <path d="M150.12,308.58c-1.09.11-1.93,1.56-1.43,2.49.35.65,1.31.98,2.1.65.85-.36,1.28-1.42.92-2.23-.27-.6-.97-.98-1.57-.92h0l-.02.02h0Z" style="fill: #e7e0b4;"/>
  <path d="M280.56,356.59c-1.09.11-1.93,1.56-1.43,2.49.35.65,1.31.98,2.1.65.85-.36,1.28-1.42.92-2.23-.27-.6-.97-.98-1.57-.92h0l-.02.02h0Z" style="fill: #e7e0b4;"/>
  <path d="M335.29,203.82c-.54.08-.95,1.06-.71,1.69.17.45.65.68,1.04.45.42-.24.63-.97.45-1.51-.14-.42-.47-.66-.77-.62h0l-.02-.02h0Z" style="fill: #e7e0b4;"/>
  <path d="M168.93,369.65c-1.09.11-1.93,1.56-1.43,2.49.35.65,1.31.98,2.1.65.85-.36,1.28-1.42.92-2.23-.27-.6-.97-.98-1.57-.92h0l-.02.02h0Z" style="fill: #e7e0b4;"/>
  <path d="M182.78,270.61c-1.09.11-1.93,1.56-1.43,2.49.35.65,1.31.98,2.1.65.85-.36,1.28-1.42.92-2.23-.27-.6-.97-.98-1.57-.92h0l-.02.02h0Z" style="fill: #e7e0b4;"/>
  <path d="M309.59,237.51c-1.09.11-1.93,1.56-1.43,2.49.35.65,1.31.98,2.1.65.85-.36,1.28-1.42.92-2.23-.27-.6-.97-.98-1.57-.92h0l-.02.02h0Z" style="fill: #e7e0b4;"/>
  <path d="M278.91,175.65c-1.09.11-1.93,1.56-1.43,2.49.35.65,1.31.98,2.1.65.85-.36,1.28-1.42.92-2.23-.27-.6-.97-.98-1.57-.92h0l-.02.02h0Z" style="fill: #e7e0b4;"/>
  <path d="M253.97,298.97c-.54.08-.95,1.06-.71,1.69.17.45.65.68,1.04.45.42-.24.63-.97.45-1.51-.14-.42-.47-.66-.77-.62h0l-.02-.02h.01Z" style="fill: #e7e0b4;"/>
  <path d="M236.67,323.43c-1.09.11-1.93,1.56-1.43,2.49.35.65,1.31.98,2.1.65.85-.36,1.28-1.42.92-2.23-.27-.6-.97-.98-1.57-.92h0l-.02.02h0Z" style="fill: #e7e0b4;"/>
  <path d="M283.86,67.42c-1.09.11-1.93,1.56-1.43,2.49.35.65,1.31.98,2.1.65.85-.36,1.28-1.42.92-2.23-.27-.6-.97-.98-1.57-.92h0l-.02.02h0Z" style="fill: #e7e0b4;"/>
  <path d="M355.97,138.16c-1.09.11-1.93,1.56-1.43,2.49.35.65,1.31.98,2.1.65.85-.36,1.28-1.42.92-2.23-.27-.6-.97-.98-1.57-.92h0l-.02.02h0Z" style="fill: #e7e0b4;"/>
  <path d="M231.71,166.97c-1.09.11-1.93,1.56-1.43,2.49.35.65,1.31.98,2.1.65.85-.36,1.28-1.42.92-2.23-.27-.6-.97-.98-1.57-.92h0l-.02.02h0Z" style="fill: #e7e0b4;"/>
  <path d="M367.23,177.28c-.54.08-.95,1.06-.71,1.69.17.45.65.68,1.04.45.42-.24.63-.97.45-1.51-.14-.42-.47-.66-.77-.62h0l-.02-.02h0Z" style="fill: #e7e0b4;"/>
  <path d="M319.34,195.2c-1.09.11-1.93,1.56-1.43,2.49.35.65,1.31.98,2.1.65.85-.36,1.28-1.42.92-2.23-.27-.6-.97-.98-1.57-.92h0l-.02.02h0Z" style="fill: #e7e0b4;"/>
  <path d="M395.8,226.45c-.54.08-.95,1.06-.71,1.69.17.45.65.68,1.04.45.42-.24.63-.97.45-1.51-.14-.42-.47-.66-.77-.62h0l-.02-.02h0Z" style="fill: #e7e0b4;"/>
  <path d="M277.2,118.76c-.54.08-.95,1.06-.71,1.69.17.45.65.68,1.04.45.42-.24.63-.97.45-1.51-.14-.42-.47-.66-.77-.62h0l-.02-.02h0Z" style="fill: #e7e0b4;"/>
  <path d="M309.14,92.22c-.54.08-.95,1.06-.71,1.69.17.45.65.68,1.04.45.42-.24.63-.97.45-1.51-.14-.42-.47-.66-.77-.62h0l-.02-.02h0Z" style="fill: #e7e0b4;"/>
  <path d="M317.69,80.99c-1.09.11-1.93,1.56-1.43,2.49.35.65,1.31.98,2.1.65.85-.36,1.28-1.42.92-2.23-.27-.6-.97-.98-1.57-.92h0l-.02.02h0Z" style="fill: #e7e0b4;"/>
  <g>
    <path d="M159.85,439.33c1.89,1.3,4.61,2.29,7.53,2.29,4.32,0,4.11-2.84,4.11-6.38,0-3.22.99-4.76-3.43-6.53-5.34-2.08-8.65-5.1-8.65-9.99,0-5.46,4.23-9.52,10.59-9.52,3.3,0,5.78.83,7.19,1.72l-1.17,3.7c-1.02-.68-3.21-1.67-6.17-1.67-4.47,0-3.67,3.33-3.67,5.72,0,3.28-.5,4.42,4.01,6.3,5.54,2.29,8.31,5.15,8.31,10.31s-3.69,10.15-11.42,10.15c-3.16,0-6.61-1.04-8.35-2.29l1.12-3.8h0Z" style="fill: #1c1b20;"/>
    <path d="M202.26,414.64h-6.63v-3.85h24.01v3.85h-7.17v31.22h-10.21v-31.22h0Z" style="fill: #1c1b20;"/>
    <path d="M242,410.95l7.67-.16v23.47c0,9.31-4.55,12.18-10.54,12.18-1.71,0-3.72-.36-4.81-.83l.62-3.7c.93.36,2.29.93,3.82.68,2.17-.36,3.94-2.6,3.23-8.53v-23.11h0Z" style="fill: #1c1b20;"/>
    <path d="M292.34,429.42h-11.24v12.65h12.85v3.8h-19.8v-35.08h19.02v3.8l-11.91.15v11.09l11.08-.15v3.75h0Z" style="fill: #1c1b20;"/>
    <path d="M315.11,411.33c2.44-.42,5.98-.73,9.24-.73,5.14,0,8.52.94,10.79,2.86,1.83,1.56,2.93,3.96,2.93,6.71,0,4.58-3.1,7.65-6.97,8.9v.15c2.82.94,4.54,3.44,5.42,7.08,1.22,4.89,2.1,8.27,2.88,9.63h-4.98c-.61-1.04-1.44-4.01-2.44-8.38-1.11-4.84-3.15-6.66-7.52-6.82h-.42v15.2h-8.93v-34.61h0ZM323.87,426.82l.98.49c5.14,0,8.41-2.65,8.41-6.66,0-4.53-3.48-6.51-8.58-6.51-2.32,0-3.93.16-.81-.12v12.8h0Z" style="fill: #1c1b20;"/>
    <path d="M361.43,446.28v-35.08h4.66l10.44,17.75c2.38,4.11,4.32,7.81,5.83,11.4l-2.13-.31c-.39-4.68-.49-8.95-.49-14.42v-14.67l6.26.26v35.08h-4.27l-10.39-17.8c-2.28-3.9-4.47-7.91-6.07-11.71l2.54.05c.24,4.42.29,8.64.29,14.47v14.99h-6.67Z" style="fill: #1c1b20;"/>
    <path d="M431.09,429.71l-12.36-.1v12.65l14.16.1v3.8h-22.04v-35.08h21.17v3.8l-13.17-.1v11.09l12.25.1v3.75h-.01Z" style="fill: #1c1b20;"/>
  </g>
  <g>
    <path d="M239.07,462.02v8.59h8.87v-8.59h4.1v20.55h-4.1v-9.64h-8.87v9.64h-4.74v-20.55h4.74Z"/>
    <path d="M265.26,462.07v20.55h-4.85v-20.55h4.85Z"/>
    <path d="M291.91,473.59c-.16-2.87-.43-6.34-.43-8.87h1.9c-.78,2.38-1.73,4.97-2.84,7.81l-3.88,9.97h-2.15l-3.59-9.79c-1.04-2.93-1.89-5.56-2.51-7.99h1.52c-.06,2.56-.23,5.97-.42,9.09l-.59,8.81h-4.3l1.53-20.55h3.62l3.75,9.94c.91,2.53,1.63,4.79,2.22,6.93h.06c.59-2.08,1.37-4.33,2.35-6.93l3.91-9.94h3.62l1.37,20.55h-4.64l-.52-9.03h.02Z"/>
    <path d="M321.49,473.54c-.17-2.87-.36-6.34-.36-8.87h1.31c-.79,2.38-1.69,4.97-2.82,7.81l-3.94,9.97h-2.19l-3.65-9.79c-1.06-2.93-1.92-5.56-2.55-7.99h1.7c-.06,2.56-.23,5.97-.43,9.09l-.6,8.81h-4.52l1.56-20.55h3.67l3.81,9.94c.93,2.53,1.66,4.79,2.25,6.93h.06c.6-2.08,1.39-4.33,2.39-6.93l3.97-9.94h3.68l1.39,20.55h-4.23l-.53-9.03h.03Z"/>
    <path d="M344.4,472.98h-6.63v7.41h7.66v2.23h-12.63v-20.55h12.13v2.23h-7.16v6.49h6.63v2.19h0Z"/>
    <path d="M350.6,462.02h5.69v18.32h7.33v2.23h-13.02v-20.55h0Z"/>
  </g>
  <path d="M254.01,257.01s97.27-11.75,144.43,15.22c0,0-33.82-13.13-61.23-12.42,0,0,47.16,11.55,67.1,32.08,0,0-49.92-30.15-84.9-21.3,0,0,40.96,12.29,56.28,25.12,0,0-80.35-36.3-121.67-38.7" style="fill: #ecae67;"/>
  <rect x="74.2" y="468.95" width="150.98" height="6.77" style="fill: #582e70;"/>
  <rect x="373.71" y="468.9" width="150.98" height="6.77" style="fill: #582e70;"/>
</svg>