<?xml version="1.0" encoding="UTF-8"?>
<svg id="Layer_1" data-name="Layer 1" xmlns="http://www.w3.org/2000/svg" width="938.47" height="156.09" viewBox="0 0 938.47 156.09">
  <g>
    <path d="M280.41,78.02c3.42,2.35,8.32,4.13,13.58,4.13,7.8,0,7.41-5.12,7.41-11.5,0-5.82,1.79-8.58-6.19-11.77-9.64-3.76-15.6-9.2-15.6-18.02,0-9.86,7.62-17.18,19.1-17.18,5.96,0,10.43,1.5,12.97,3.1l-2.1,6.66c-1.84-1.22-5.78-3-11.13-3-8.06,0-6.63,6.01-6.63,10.33,0,5.91-.91,7.98,7.24,11.36,9.99,4.13,14.99,9.29,14.99,18.59,0,9.76-6.66,18.3-20.6,18.3-5.69,0-11.92-1.88-15.07-4.13l2.02-6.85Z" style="fill: #1c1b20;"/>
    <path d="M356.92,33.49h-11.95v-6.95h43.3v6.95h-12.93v56.32h-18.42v-56.32Z" style="fill: #1c1b20;"/>
    <path d="M428.59,26.83l13.84-.29v42.33c0,16.8-8.2,21.96-19.01,21.96-3.08,0-6.71-.66-8.67-1.5l1.12-6.66c1.68.66,4.14,1.68,6.9,1.22,3.92-.65,7.1-4.68,5.82-15.38V26.83Z" style="fill: #1c1b20;"/>
    <path d="M519.38,60.14h-20.27v22.81h23.18v6.85h-35.71V26.54h34.3v6.85l-21.48.27v19.99l19.98-.27v6.76Z" style="fill: #1c1b20;"/>
    <path d="M560.45,27.52c4.39-.75,10.78-1.31,16.67-1.31,9.28,0,15.37,1.69,19.46,5.16,3.29,2.82,5.29,7.13,5.29,12.11,0,8.26-5.59,13.8-12.57,16.05v.28c5.09,1.69,8.18,6.2,9.78,12.77,2.2,8.82,3.79,14.92,5.19,17.36h-8.98c-1.1-1.88-2.6-7.23-4.39-15.11-1.99-8.73-5.69-12.01-13.57-12.29h-.75v27.41h-16.11V27.52ZM576.25,55.46l1.76.88c9.28,0,15.17-4.79,15.17-12.01,0-8.17-6.29-11.74-15.47-11.74-4.19,0-7.09.28-1.46-.22v23.09Z" style="fill: #1c1b20;"/>
    <path d="M643.99,90.56V27.29h8.41l18.83,32.01c4.29,7.41,7.8,14.08,10.51,20.56l-3.84-.57c-.7-8.45-.88-16.14-.88-26v-26.47l11.29.47v63.26h-7.71l-18.74-32.1c-4.12-7.04-8.06-14.27-10.95-21.12l4.58.1c.44,7.98.52,15.58.52,26.09v27.03h-12.03Z" style="fill: #1c1b20;"/>
    <path d="M769.65,60.66l-22.3-.19v22.81l25.54.19v6.85h-39.75V27.06h38.18v6.85l-23.76-.19v19.99l22.09.19v6.76Z" style="fill: #1c1b20;"/>
  </g>
  <g>
    <path d="M423.3,118.93v15.5h16.01v-15.5h7.4v37.06h-7.4v-17.38h-16.01v17.38h-8.54v-37.06h8.54Z"/>
    <path d="M470.54,119.03v37.06h-8.74v-37.06h8.74Z"/>
    <path d="M518.6,139.81c-.29-5.17-.77-11.43-.77-16h3.43c-1.41,4.29-3.12,8.96-5.12,14.08l-7,17.99h-3.88l-6.47-17.65c-1.88-5.28-3.41-10.02-4.53-14.41h2.75c-.11,4.62-.41,10.77-.76,16.39l-1.06,15.89h-7.75l2.77-37.06h6.52l6.77,17.92c1.65,4.57,2.94,8.64,4,12.49h.11c1.06-3.75,2.47-7.82,4.24-12.49l7.06-17.92h6.53l2.47,37.06h-8.37l-.94-16.28Z"/>
    <path d="M571.96,139.72c-.3-5.17-.66-11.43-.66-16h2.36c-1.43,4.29-3.04,8.96-5.08,14.08l-7.11,17.99h-3.94l-6.58-17.65c-1.91-5.28-3.47-10.02-4.6-14.41h3.07c-.12,4.62-.42,10.77-.77,16.39l-1.08,15.89h-8.15l2.81-37.06h6.63l6.88,17.92c1.67,4.57,2.99,8.64,4.07,12.49h.12c1.08-3.75,2.51-7.82,4.31-12.49l7.17-17.92h6.64l2.51,37.06h-7.62l-.96-16.28Z"/>
    <path d="M613.28,138.71h-11.96v13.37h13.82v4.02h-22.77v-37.06h21.87v4.02h-12.91v11.71h11.96v3.95Z"/>
    <path d="M624.47,118.93h10.26v33.05h13.22v4.02h-23.48v-37.06Z"/>
  </g>
  <rect x="125.93" y="131.45" width="272.32" height="12.21" style="fill: #582e70;"/>
  <rect x="666.15" y="131.36" width="272.32" height="12.21" style="fill: #582e70;"/>
  <path d="M179.6,52.62S68.94,35.3,10.93,78.18c0,0,40.35-14.29,47.08-10.93,0,0-36.99,9.25-58.01,40.35,0,0,60.53-35.74,81.55-29.22,0,0-35.31,9.04-49.6,29.22,0,0,109.02-42.32,147.65-46.62" style="fill: #e26d58;"/>
  <polygon points="150.72 31.68 179.6 57.66 163.79 93.15 197.44 73.73 226.3 99.72 218.23 61.72 251.86 42.3 213.23 38.25 205.16 .25 189.35 35.73 150.72 31.68" style="fill: #ecae67;"/>
  <path d="M180.5,56.44s-107.42-12.97-159.49,16.81c0,0,37.35-14.5,67.62-13.72,0,0-52.08,12.75-74.1,35.42,0,0,55.13-33.29,93.75-23.52,0,0-45.24,13.58-62.15,27.74,0,0,88.73-40.09,134.36-42.73" style="fill: #ecae67;"/>
</svg>