<?xml version="1.0" encoding="UTF-8"?>
<svg id="Layer_1" data-name="Layer 1" xmlns="http://www.w3.org/2000/svg" width="595.28" height="521.16" viewBox="0 0 595.28 521.16">
  <g>
    <path d="M493.76,359.75l-45.34-78.54,61.3,104.42h-30.89c13.27,0,21.58-14.37,14.93-25.88Z" style="fill: #1c1b20;"/>
    <path d="M478.83,385.63h-153.12l92.01-156.72,30.59,52.1.12.2,45.34,78.54c6.64,11.5-1.66,25.88-14.93,25.88Z" style="fill: #1c1b20;"/>
    <path d="M448.3,281.02L312.58,45.94c-6.64-11.5-23.24-11.5-29.88,0l-110.65,191.67-.2.33-86.69,147.69h424.56l-61.3-104.42-.12-.2ZM315.81,32.26l258.09,446.99c8.08,14-2.02,31.48-18.18,31.48H39.56c-16.15,0-26.26-17.48-18.18-31.48L279.47,32.26c8.08-14,28.26-14,36.34,0Z" style="fill: #cab095;"/>
    <path d="M315.81,10.74l276.37,478.69c8.08,14-2.01,31.48-18.18,31.48H21.28c-16.17,0-26.26-17.48-18.18-31.48L279.47,10.74c8.08-14,28.26-14,36.34,0ZM573.9,479.25L315.81,32.26c-8.08-14-28.26-14-36.34,0L21.38,479.25c-8.08,14,2.02,31.48,18.18,31.48h516.16c16.15,0,26.26-17.48,18.18-31.48Z" style="fill: #341149;"/>
    <path d="M172.05,237.61l110.65-191.67c6.64-11.5,23.24-11.5,29.88,0l135.72,235.08-30.59-52.1-92.01,156.72h-56.54l-92.01-156.72-5.1,8.7Z" style="fill: #1c1b20;"/>
    <path d="M269.16,385.63H116.46c-13.27,0-21.58-14.37-14.93-25.88l70.33-121.81.2-.33,5.1-8.7,92.01,156.72Z" style="fill: #1c1b20;"/>
    <path d="M101.52,359.75c-6.64,11.5,1.66,25.88,14.93,25.88h-31.3l86.69-147.69-70.33,121.81Z" style="fill: #1c1b20;"/>
  </g>
  <path d="M255.07,253.79s100.21-15.69,152.74,23.14c0,0-36.54-12.94-42.63-9.9,0,0,33.5,8.37,52.53,36.54,0,0-54.81-32.36-73.85-26.46,0,0,31.98,8.19,44.92,26.46,0,0-98.72-38.32-133.71-42.22" style="fill: #e26d58;"/>
  <polygon points="281.22 234.83 255.07 258.36 269.38 290.49 238.92 272.9 212.78 296.44 220.09 262.03 189.63 244.44 224.62 240.77 231.92 206.37 246.24 238.49 281.22 234.83" style="fill: #ecae67;"/>
  <path d="M323.99,297.05c-1.09.11-1.93,1.56-1.43,2.49.35.65,1.31.98,2.1.65.85-.36,1.28-1.42.92-2.23-.27-.6-.97-.98-1.57-.92h0l-.02.02Z" style="fill: #e7e0b4;"/>
  <path d="M366.45,307.53c-1.09.11-1.93,1.56-1.43,2.49.35.65,1.31.98,2.1.65.85-.36,1.28-1.42.92-2.23-.27-.6-.97-.98-1.57-.92h0l-.02.02Z" style="fill: #e7e0b4;"/>
  <path d="M297.64,340.36c-1.09.11-1.93,1.56-1.43,2.49.35.65,1.31.98,2.1.65.85-.36,1.28-1.42.92-2.23-.27-.6-.97-.98-1.57-.92h0l-.02.02Z" style="fill: #e7e0b4;"/>
  <path d="M433.15,350.68c-.54.08-.95,1.06-.71,1.69.17.45.65.68,1.04.45.42-.24.63-.97.45-1.51-.14-.42-.47-.66-.77-.62h0l-.02-.02Z" style="fill: #e7e0b4;"/>
  <path d="M455.42,351.27c-1.09.11-1.93,1.56-1.43,2.49.35.65,1.31.98,2.1.65.85-.36,1.28-1.42.92-2.23-.27-.6-.97-.98-1.57-.92h0l-.02.02Z" style="fill: #e7e0b4;"/>
  <path d="M489.64,367.99c-.54.08-.95,1.06-.71,1.69.17.45.65.68,1.04.45.42-.24.63-.97.45-1.51-.14-.42-.47-.66-.77-.62h0l-.02-.02Z" style="fill: #e7e0b4;"/>
  <path d="M385.27,368.6c-1.09.11-1.93,1.56-1.43,2.49.35.65,1.31.98,2.1.65.85-.36,1.28-1.42.92-2.23-.27-.6-.97-.98-1.57-.92h0l-.02.02Z" style="fill: #e7e0b4;"/>
  <path d="M208.03,264.31c-1.09.11-1.93,1.56-1.43,2.49.35.65,1.31.98,2.1.65.85-.36,1.28-1.42.92-2.23-.27-.6-.97-.98-1.57-.92h0l-.02.02Z" style="fill: #e7e0b4;"/>
  <path d="M150.37,308.82c-1.09.11-1.93,1.56-1.43,2.49.35.65,1.31.98,2.1.65.85-.36,1.28-1.42.92-2.23-.27-.6-.97-.98-1.57-.92h0l-.02.02Z" style="fill: #e7e0b4;"/>
  <path d="M280.81,356.83c-1.09.11-1.93,1.56-1.43,2.49.35.65,1.31.98,2.1.65.85-.36,1.28-1.42.92-2.23-.27-.6-.97-.98-1.57-.92h0l-.02.02Z" style="fill: #e7e0b4;"/>
  <path d="M335.54,204.06c-.54.08-.95,1.06-.71,1.69.17.45.65.68,1.04.45.42-.24.63-.97.45-1.51-.14-.42-.47-.66-.77-.62h0l-.02-.02Z" style="fill: #e7e0b4;"/>
  <path d="M169.18,369.89c-1.09.11-1.93,1.56-1.43,2.49.35.65,1.31.98,2.1.65.85-.36,1.28-1.42.92-2.23-.27-.6-.97-.98-1.57-.92h0l-.02.02Z" style="fill: #e7e0b4;"/>
  <path d="M183.03,270.85c-1.09.11-1.93,1.56-1.43,2.49.35.65,1.31.98,2.1.65.85-.36,1.28-1.42.92-2.23-.27-.6-.97-.98-1.57-.92h0l-.02.02Z" style="fill: #e7e0b4;"/>
  <path d="M309.84,237.75c-1.09.11-1.93,1.56-1.43,2.49.35.65,1.31.98,2.1.65.85-.36,1.28-1.42.92-2.23-.27-.6-.97-.98-1.57-.92h0l-.02.02Z" style="fill: #e7e0b4;"/>
  <path d="M279.16,175.89c-1.09.11-1.93,1.56-1.43,2.49.35.65,1.31.98,2.1.65.85-.36,1.28-1.42.92-2.23-.27-.6-.97-.98-1.57-.92h0l-.02.02Z" style="fill: #e7e0b4;"/>
  <path d="M254.22,299.21c-.54.08-.95,1.06-.71,1.69.17.45.65.68,1.04.45.42-.24.63-.97.45-1.51-.14-.42-.47-.66-.77-.62h0l-.02-.02Z" style="fill: #e7e0b4;"/>
  <path d="M236.92,323.67c-1.09.11-1.93,1.56-1.43,2.49.35.65,1.31.98,2.1.65.85-.36,1.28-1.42.92-2.23-.27-.6-.97-.98-1.57-.92h0l-.02.02Z" style="fill: #e7e0b4;"/>
  <path d="M284.11,67.66c-1.09.11-1.93,1.56-1.43,2.49.35.65,1.31.98,2.1.65.85-.36,1.28-1.42.92-2.23-.27-.6-.97-.98-1.57-.92h0l-.02.02Z" style="fill: #e7e0b4;"/>
  <path d="M356.22,138.4c-1.09.11-1.93,1.56-1.43,2.49.35.65,1.31.98,2.1.65.85-.36,1.28-1.42.92-2.23-.27-.6-.97-.98-1.57-.92h0l-.02.02Z" style="fill: #e7e0b4;"/>
  <path d="M231.96,167.21c-1.09.11-1.93,1.56-1.43,2.49.35.65,1.31.98,2.1.65.85-.36,1.28-1.42.92-2.23-.27-.6-.97-.98-1.57-.92h0l-.02.02Z" style="fill: #e7e0b4;"/>
  <path d="M367.48,177.52c-.54.08-.95,1.06-.71,1.69.17.45.65.68,1.04.45.42-.24.63-.97.45-1.51-.14-.42-.47-.66-.77-.62h0l-.02-.02Z" style="fill: #e7e0b4;"/>
  <path d="M319.59,195.44c-1.09.11-1.93,1.56-1.43,2.49.35.65,1.31.98,2.1.65.85-.36,1.28-1.42.92-2.23-.27-.6-.97-.98-1.57-.92h0l-.02.02Z" style="fill: #e7e0b4;"/>
  <path d="M396.05,226.69c-.54.08-.95,1.06-.71,1.69.17.45.65.68,1.04.45.42-.24.63-.97.45-1.51-.14-.42-.47-.66-.77-.62h0l-.02-.02Z" style="fill: #e7e0b4;"/>
  <path d="M277.45,119c-.54.08-.95,1.06-.71,1.69.17.45.65.68,1.04.45.42-.24.63-.97.45-1.51-.14-.42-.47-.66-.77-.62h0l-.02-.02Z" style="fill: #e7e0b4;"/>
  <path d="M309.39,92.46c-.54.08-.95,1.06-.71,1.69.17.45.65.68,1.04.45.42-.24.63-.97.45-1.51-.14-.42-.47-.66-.77-.62h0l-.02-.02Z" style="fill: #e7e0b4;"/>
  <path d="M317.94,81.23c-1.09.11-1.93,1.56-1.43,2.49.35.65,1.31.98,2.1.65.85-.36,1.28-1.42.92-2.23-.27-.6-.97-.98-1.57-.92h0l-.02.02Z" style="fill: #e7e0b4;"/>
  <g>
    <path d="M160.1,439.57c1.89,1.3,4.61,2.29,7.53,2.29,4.32,0,4.11-2.84,4.11-6.38,0-3.22.99-4.76-3.43-6.53-5.34-2.08-8.65-5.1-8.65-9.99,0-5.46,4.23-9.52,10.59-9.52,3.3,0,5.78.83,7.19,1.72l-1.17,3.7c-1.02-.68-3.21-1.67-6.17-1.67-4.47,0-3.67,3.33-3.67,5.72,0,3.28-.5,4.42,4.01,6.3,5.54,2.29,8.31,5.15,8.31,10.31,0,5.41-3.69,10.15-11.42,10.15-3.16,0-6.61-1.04-8.35-2.29l1.12-3.8Z" style="fill: #1c1b20;"/>
    <path d="M202.51,414.88h-6.63v-3.85h24.01v3.85h-7.17v31.22h-10.21v-31.22Z" style="fill: #1c1b20;"/>
    <path d="M242.25,411.19l7.67-.16v23.47c0,9.31-4.55,12.18-10.54,12.18-1.71,0-3.72-.36-4.81-.83l.62-3.7c.93.36,2.29.93,3.82.68,2.17-.36,3.94-2.6,3.23-8.53v-23.11Z" style="fill: #1c1b20;"/>
    <path d="M292.59,429.66h-11.24v12.65h12.85v3.8h-19.8v-35.08h19.02v3.8l-11.91.15v11.09l11.08-.15v3.75Z" style="fill: #1c1b20;"/>
    <path d="M315.36,411.57c2.44-.42,5.98-.73,9.24-.73,5.14,0,8.52.94,10.79,2.86,1.83,1.56,2.93,3.96,2.93,6.71,0,4.58-3.1,7.65-6.97,8.9v.15c2.82.94,4.54,3.44,5.42,7.08,1.22,4.89,2.1,8.27,2.88,9.63h-4.98c-.61-1.04-1.44-4.01-2.44-8.38-1.11-4.84-3.15-6.66-7.52-6.82h-.42v15.2h-8.93v-34.61ZM324.12,427.06l.98.49c5.14,0,8.41-2.65,8.41-6.66,0-4.53-3.48-6.51-8.58-6.51-2.32,0-3.93.16-.81-.12v12.8Z" style="fill: #1c1b20;"/>
    <path d="M361.68,446.52v-35.08h4.66l10.44,17.75c2.38,4.11,4.32,7.81,5.83,11.4l-2.13-.31c-.39-4.68-.49-8.95-.49-14.42v-14.67l6.26.26v35.08h-4.27l-10.39-17.8c-2.28-3.9-4.47-7.91-6.07-11.71l2.54.05c.24,4.42.29,8.64.29,14.47v14.99h-6.67Z" style="fill: #1c1b20;"/>
    <path d="M431.34,429.95l-12.36-.1v12.65l14.16.1v3.8h-22.04v-35.08h21.17v3.8l-13.17-.1v11.09l12.25.1v3.75Z" style="fill: #1c1b20;"/>
  </g>
  <g>
    <path d="M239.32,462.26v8.59h8.87v-8.59h4.1v20.55h-4.1v-9.64h-8.87v9.64h-4.74v-20.55h4.74Z"/>
    <path d="M265.51,462.31v20.55h-4.85v-20.55h4.85Z"/>
    <path d="M292.16,473.83c-.16-2.87-.43-6.34-.43-8.87h1.9c-.78,2.38-1.73,4.97-2.84,7.81l-3.88,9.97h-2.15l-3.59-9.79c-1.04-2.93-1.89-5.56-2.51-7.99h1.52c-.06,2.56-.23,5.97-.42,9.09l-.59,8.81h-4.3l1.53-20.55h3.62l3.75,9.94c.91,2.53,1.63,4.79,2.22,6.93h.06c.59-2.08,1.37-4.33,2.35-6.93l3.91-9.94h3.62l1.37,20.55h-4.64l-.52-9.03Z"/>
    <path d="M321.74,473.78c-.17-2.87-.36-6.34-.36-8.87h1.31c-.79,2.38-1.69,4.97-2.82,7.81l-3.94,9.97h-2.19l-3.65-9.79c-1.06-2.93-1.92-5.56-2.55-7.99h1.7c-.06,2.56-.23,5.97-.43,9.09l-.6,8.81h-4.52l1.56-20.55h3.67l3.81,9.94c.93,2.53,1.66,4.79,2.25,6.93h.06c.6-2.08,1.39-4.33,2.39-6.93l3.97-9.94h3.68l1.39,20.55h-4.23l-.53-9.03Z"/>
    <path d="M344.65,473.22h-6.63v7.41h7.66v2.23h-12.63v-20.55h12.13v2.23h-7.16v6.49h6.63v2.19Z"/>
    <path d="M350.85,462.26h5.69v18.32h7.33v2.23h-13.02v-20.55Z"/>
  </g>
  <path d="M254.26,257.25s97.27-11.75,144.43,15.22c0,0-33.82-13.13-61.23-12.42,0,0,47.16,11.55,67.1,32.08,0,0-49.92-30.15-84.9-21.3,0,0,40.96,12.29,56.28,25.12,0,0-80.35-36.3-121.67-38.7" style="fill: #ecae67;"/>
  <rect x="74.45" y="469.19" width="150.98" height="6.77" style="fill: #582e70;"/>
  <rect x="373.96" y="469.14" width="150.98" height="6.77" style="fill: #582e70;"/>
</svg>